inDegrees=no
num_controls=7
num_derivatives=13
num_iterations=108
num_multipliers=7
num_parameters=0
num_slacks=7
num_states=26
objective=0.453005
objective_accelerations=0.048239
objective_balance=0.001040
objective_effort=0.037481
objective_height=0.360614
objective_ligament=0.005631
solver_duration=1321.391033
status=Solve_Succeeded
success=true
DataType=double
version=3
OpenSimVersion=4.5
endheader
time	/jointset/ground_pelvis/pelvis_tilt/value	/jointset/ground_pelvis/pelvis_tx/value	/jointset/ground_pelvis/pelvis_ty/value	/jointset/hip_r/hip_flexion_r/value	/jointset/hip_r/hip_adduction_r/value	/jointset/hip_r/hip_rotation_r/value	/jointset/back/lumbar_extension/value	/jointset/patellofemoral_r/patellar_flexion_r/value	/jointset/knee_r/knee_flexion_r/value	/jointset/knee_r/knee_adduction_r/value	/jointset/knee_r/knee_rotation_r/value	/jointset/ankle_r/ankle_angle_r/value	/jointset/subtalar_r/subtalar_angle_r/value	/jointset/ground_pelvis/pelvis_tilt/speed	/jointset/ground_pelvis/pelvis_tx/speed	/jointset/ground_pelvis/pelvis_ty/speed	/jointset/hip_r/hip_flexion_r/speed	/jointset/hip_r/hip_adduction_r/speed	/jointset/hip_r/hip_rotation_r/speed	/jointset/back/lumbar_extension/speed	/jointset/patellofemoral_r/patellar_flexion_r/speed	/jointset/knee_r/knee_flexion_r/speed	/jointset/knee_r/knee_adduction_r/speed	/jointset/knee_r/knee_rotation_r/speed	/jointset/ankle_r/ankle_angle_r/speed	/jointset/subtalar_r/subtalar_angle_r/speed	/forceset/tau_hip_flexion_r	/forceset/tau_hip_adduction_r	/forceset/tau_hip_rotation_r	/forceset/tau_knee_flexion_r	/forceset/tau_ankle_angle_r	/forceset/tau_subtalar_angle_r	/forceset/tau_lumbar_extension	lambda_cid13_p0	lambda_cid14_p0	lambda_cid14_p1	lambda_cid14_p2	lambda_cid14_p3	lambda_cid14_p4	lambda_cid14_p5	/jointset/ground_pelvis/pelvis_tilt/accel	/jointset/ground_pelvis/pelvis_tx/accel	/jointset/ground_pelvis/pelvis_ty/accel	/jointset/hip_r/hip_flexion_r/accel	/jointset/hip_r/hip_adduction_r/accel	/jointset/hip_r/hip_rotation_r/accel	/jointset/back/lumbar_extension/accel	/jointset/patellofemoral_r/patellar_flexion_r/accel	/jointset/knee_r/knee_flexion_r/accel	/jointset/knee_r/knee_adduction_r/accel	/jointset/knee_r/knee_rotation_r/accel	/jointset/ankle_r/ankle_angle_r/accel	/jointset/subtalar_r/subtalar_angle_r/accel	gamma_cid13_p0	gamma_cid14_p0	gamma_cid14_p1	gamma_cid14_p2	gamma_cid14_p3	gamma_cid14_p4	gamma_cid14_p5
1	-0.2183049170781168	-0.0141366941846528	0.6335046231270354	1.420555469222774	-0.2387963216544719	-0.08555950336179866	-0.7853946486172819	1.518934773942501	1.5189347739425	-0.174532821151984	0.1745322762893731	0.4362526396617732	0.1748201117686696	0.06871472699239091	0.004791790351711108	0.01489072995449072	-0.09845860842299145	-0.0009716145113962609	-0.00259821732836732	-0.0002913136042624867	-0.01677825251680972	-0.01677825251681025	0.003180164499574995	-0.0002660924452721422	0.012976662124055	0.004891819383291059	-0.3230033580962106	0.03001011277080277	0.01068187818043798	-0.4740738101236066	-0.006393429903051614	0.003958239946576536	0.3520212688641086	-0.0409383451160309	-53.90129508687823	-11.87903967709935	7.067928539135759	6.934590909534093	-768.9353861869558	68.20781525806022	1.197409648855607	0.1436739532663046	1.827273997475326	-5.398304949921238	0.2693112961591236	-0.6802558602313871	-0.05414195378444732	-5.063201307029242	-5.063201307029186	0.5870213323238771	-0.03614106418360392	-1.005354089275175	0.008998796280206559	1.979142569723789e-09	9.574138148552914e-10	1.209801170835953e-08	1.193067032630733e-08	1.973036376436073e-09	-6.505717771239138e-09	2.440452060788505e-08
1.01	-0.2175589213770579	-0.01408146661518247	0.633744756277678	1.419302029796988	-0.23879268086215	-0.08561673544103553	-0.7853980898116867	1.518514233118179	1.518514233118179	-0.1744687937697169	0.1745275897425222	0.4363322209682155	0.1748692471108749	0.08044357563155805	0.006269198528863047	0.03313418340281373	-0.1522071659511504	0.001691022200344947	-0.008814696640854401	-0.000249634919931221	-0.06733245394120291	-0.06733245394120325	0.00967302702865573	-0.0006596522230844813	0.002950625314604049	0.004923202219034532	-0.323446493096633	0.03004086790684541	0.01075890261237543	-0.4742270675966797	-0.006417944361779479	0.003941892133867783	0.3527653099074265	-0.04093779009223655	-53.93903993089704	-11.89633587719984	7.07478399388571	6.751059128275902	-769.4766647518904	68.22561773261032	1.154498759111533	0.1520954886647503	1.822620917172586	-5.359812853065122	0.2634324229621167	-0.5873164055842061	0.05541633164540279	-5.051911948441707	-5.0519119484417	0.687575948025925	-0.03921772584828066	-0.9995748992655493	-0.00158839696625612	5.708647399152803e-09	6.326105277267037e-09	3.770560410602581e-08	3.92367727994415e-08	-2.611180401790966e-11	-1.286406638756276e-08	7.673035169464068e-08
1.02	-0.2166968619320752	-0.01401100071619557	0.6341672719425361	1.417511768456164	-0.2387626751898539	-0.0857351268011617	-0.7853966955086815	1.517588073801953	1.517588073801953	-0.174338406315189	0.1745193167396428	0.4363118726221032	0.1749183369966003	0.09192747577729715	0.007839456255025412	0.05136723279759979	-0.2058229914313847	0.00430136148330413	-0.01483007350641448	0.0006757858485430832	-0.1179019508974904	-0.1179019508974908	0.01645217895076586	-0.0009833836516261424	-0.007009268394266578	0.004882728087271273	-0.3238896280970426	0.03007162304289467	0.0108359270443024	-0.4743803250697541	-0.006442458820508003	0.003925544321171367	0.3535093509507565	-0.04094482740099527	-53.98447654595801	-11.91124216464347	7.076989869646266	6.570893231843203	-770.1402040979299	68.2753424833621	1.148419950169999	0.1622438630683932	1.825193186767936	-5.371758540336317	0.2588518104027162	-0.6400353708459945	0.1226064630444362	-5.066260413408093	-5.066260413408093	0.6442792109297532	-0.0221753943294624	-0.992125469159103	-0.005372597221141686	1.131826068195419e-08	1.477159007643964e-08	6.808282864830685e-08	7.979975219638972e-08	-4.550370923826799e-09	-2.018841540620897e-08	1.475626264913382e-07
1.03	-0.2157209342611515	-0.01392437808547104	0.6347720517668088	1.41518584581835	-0.2387068348279782	-0.08591256982175385	-0.7853814591428843	1.516156124378453	1.516156124378455	-0.1741386747780339	0.1745081779166332	0.4361921297762366	0.1749665792287856	0.1032421165908873	0.009499695176596715	0.0695856358319864	-0.259356109198065	0.006858179610413882	-0.02061697865365265	0.002536707027302745	-0.1684927572961806	-0.1684927572961808	0.023551051802233	-0.001233043422297685	-0.01694048042903891	0.004747395589703176	-0.3248027471988261	0.03021746293617997	0.01091901539682541	-0.4737277417785558	-0.007473907353159931	0.003985351987540076	0.3546368358594094	-0.0409613442068663	-54.34786927913083	-11.92459938010117	7.051367971372418	6.679903732953146	-770.7586702205061	68.25415938404208	1.120600149370261	0.170105852084664	1.819693879056234	-5.343269483702662	0.2528327398301393	-0.5417763337176714	0.2426179024689354	-5.056217700657157	-5.05621770065714	0.7512276189162623	-0.02462779249683803	-0.9937958534625794	-0.02033218131739293	1.694705874489204e-08	2.324847072598737e-08	9.85087229063493e-08	1.204980058476627e-07	-9.100396481792386e-09	-2.752262157181766e-08	2.185837425503821e-07
